Coordinates
version=1
nRows=42
nColumns=38
inDegrees=no

Units are S.I. units (second, meters, Newtons, ...)
If the header above contains a line with 'inDegrees', this indicates whether rotational values are in degrees (yes) or radians (no).

endheader
time	pelvis_tilt	pelvis_list	pelvis_rotation	pelvis_tx	pelvis_ty	pelvis_tz	hip_flexion_r	hip_adduction_r	hip_rotation_r	knee_angle_r	ankle_angle_r	subtalar_angle_r	mtp_angle_r	hip_flexion_l	hip_adduction_l	hip_rotation_l	knee_angle_l	ankle_angle_l	subtalar_angle_l	mtp_angle_l	lumbar_extension	lumbar_bending	lumbar_rotation	arm_flex_r	arm_add_r	arm_rot_r	elbow_flex_r	pro_sup_r	wrist_flex_r	wrist_dev_r	arm_flex_l	arm_add_l	arm_rot_l	elbow_flex_l	pro_sup_l	wrist_flex_l	wrist_dev_l
45	-2.89772	1.38602	-1.90982	0.665027	0.184708	0.566407	1.26092	-0.284409	0.176889	2.0944	0.469657	0	0	1.17319	-0.411184	-0.0508453	2.0889	0.410853	0	0	-1.0201	-0.127028	0.00784094	1.05922	-0.529382	0.0710882	1.16588	1.45237	0	0	1.03293	-0.364269	-0.0569132	1.37064	1.5708	0	0
45.01	-2.88978	1.39392	-1.9208	0.66475	0.183802	0.571453	1.25573	-0.282049	0.168242	2.0944	0.466685	0	0	1.16791	-0.407759	-0.0579158	2.07141	0.409078	0	0	-1.00971	-0.127069	0.0209041	1.04419	-0.537203	0.0534025	1.1742	1.48501	0	0	1.01815	-0.343674	0.0615157	1.37462	0.878501	0	0
45.02	-2.87725	1.3996	-1.93684	0.664717	0.182776	0.576543	1.24968	-0.279431	0.16194	2.08622	0.467122	0	0	1.16007	-0.404717	-0.0667256	2.05359	0.406714	0	0	-1.00464	-0.129001	0.0232246	1.03738	-0.536683	0.0487923	1.17859	1.48603	0	0	1.0075	-0.342353	0.0558836	1.38357	0.879232	0	0
45.03	-2.86169	1.40542	-1.95594	0.664634	0.181789	0.58156	1.24447	-0.277777	0.155591	2.06727	0.462251	0	0	1.15252	-0.401497	-0.0758765	2.03574	0.4044	0	0	-0.998987	-0.131052	0.0252847	1.03016	-0.537062	0.0505038	1.18397	1.46055	0	0	0.996571	-0.34209	0.051032	1.39282	0.880403	0	0
45.04	-2.9627	1.38768	-1.85162	0.66406	0.180911	0.592012	1.19108	-0.277865	0.132855	2.03974	0.460296	0	0	1.1109	-0.399749	-0.075293	2.01044	0.405498	0	0	-1.02706	-0.118655	0.0310727	1.03162	-0.536678	0.0429827	1.18772	1.4917	0	0	0.989964	-0.341319	0.0441184	1.40301	0.882644	0	0
45.05	-2.85385	1.41109	-1.97099	0.664446	0.179664	0.592864	1.22197	-0.274699	0.140061	2.02661	0.458228	0	0	1.12788	-0.396575	-0.0936381	1.99734	0.402448	0	0	-0.995663	-0.133699	0.0301987	1.01972	-0.536537	0.0431317	1.19404	1.46398	0	0	0.976807	-0.342516	0.0422649	1.41253	0.881245	0	0
45.06	-2.95825	1.39751	-1.86294	0.663851	0.179131	0.602494	1.17379	-0.273571	0.117955	2.0009	0.456974	0	0	1.09184	-0.395184	-0.0905603	1.97342	0.404846	0	0	-1.01799	-0.120335	0.0372539	1.01986	-0.536519	0.034469	1.19848	1.49917	0	0	0.969565	-0.341953	0.037737	1.42224	0.880312	0	0
45.07	-2.85264	1.42214	-1.9783	0.663975	0.177879	0.603327	1.20492	-0.269875	0.123833	1.98749	0.452345	0	0	1.11042	-0.391683	-0.105778	1.9603	0.402209	0	0	-0.985506	-0.132195	0.0379533	1.01026	-0.537032	0.0369484	1.2038	1.46949	0	0	0.956579	-0.343281	0.0353828	1.43098	0.881229	0	0
45.08	-2.83688	1.43203	-1.99603	0.663643	0.177053	0.607869	1.20377	-0.26713	0.118133	1.97002	0.448696	0	0	1.10849	-0.388706	-0.11093	1.94269	0.400679	0	0	-0.975017	-0.130584	0.0408506	1.00487	-0.535581	0.0323141	1.20826	1.47144	0	0	0.945992	-0.344248	0.0319596	1.43993	0.883397	0	0
45.09	-2.97086	1.40153	-1.84071	0.661356	0.17812	0.61958	1.12311	-0.271216	0.10563	1.94491	0.466274	0	0	1.05237	-0.37155	-0.104944	1.91655	0.405422	0	0	-1.01474	-0.104175	0.0349744	1.00431	-0.532217	0.0218203	1.21249	1.50544	0	0	0.939225	-0.345886	0.0277335	1.44946	0.891913	0	0
45.1	-3.05961	1.38839	-1.74849	0.660812	0.177283	0.629142	1.07972	-0.267507	0.0832813	1.9181	0.460827	0	0	1.01932	-0.373457	-0.101367	1.8911	0.405714	0	0	-1.03592	-0.0903763	0.0412443	1.0069	-0.529619	0.0191361	1.21695	1.50598	0	0	0.933004	-0.347861	0.0218479	1.46095	0.895757	0	0
45.11	-3.10073	1.3936	-1.71402	0.66197	0.17596	0.635119	1.07177	-0.245399	0.0655945	1.91475	0.523599	0	0	1.01053	-0.383932	-0.103463	1.87056	0.403267	0	0	-1.03374	-0.0903447	0.050026	1.00394	-0.525801	0.0134448	1.22184	1.507	0	0	0.926958	-0.351309	0.0200552	1.47074	0.895342	0	0
45.12	-3.05792	1.3984	-1.75211	0.659643	0.175061	0.64067	1.0649	-0.263006	0.0716743	1.87531	0.437801	0	0	1.00024	-0.364796	-0.11492	1.84845	0.401242	0	0	-1.03001	-0.0867595	0.0411556	1.00208	-0.525989	0.0178885	1.22656	1.47855	0	0	0.918553	-0.352025	0.0167676	1.47935	0.895148	0	0
45.13	-3.09933	1.40142	-1.71906	0.661076	0.173712	0.647041	1.05263	-0.23898	0.057987	1.87264	0.523599	0	0	0.986764	-0.377417	-0.120242	1.82623	0.398815	0	0	-1.02979	-0.0889439	0.0506486	0.999798	-0.522946	0.00635289	1.23114	1.51521	0	0	0.914025	-0.356168	0.0170218	1.48812	0.893399	0	0
45.14	-3.09633	1.40535	-1.72409	0.660671	0.172721	0.652968	1.04203	-0.23594	0.0543652	1.85067	0.523599	0	0	0.974051	-0.374813	-0.129981	1.80348	0.397131	0	0	-1.02709	-0.0886088	0.0513245	0.997694	-0.523576	0.00562585	1.23568	1.5173	0	0	0.90702	-0.358638	0.0151343	1.49667	0.894845	0	0
45.15	-3.09369	1.40992	-1.72822	0.660278	0.171884	0.658737	1.03153	-0.233316	0.0502044	1.8287	0.523599	0	0	0.962048	-0.372921	-0.139775	1.78089	0.396282	0	0	-1.0229	-0.0877749	0.0521494	0.994742	-0.524496	0.00536509	1.24006	1.51846	0	0	0.899698	-0.360329	0.0132681	1.50467	0.895693	0	0
45.16	-3.08626	1.41441	-1.73511	0.659367	0.171037	0.664673	1.02088	-0.23488	0.0452272	1.80617	0.523599	0	0	0.949636	-0.367907	-0.14963	1.75682	0.39599	0	0	-1.01888	-0.0851319	0.0514251	0.992607	-0.526263	0.00674397	1.24424	1.51764	0	0	0.892801	-0.360336	0.010634	1.51181	0.897232	0	0
45.17	-3.07996	1.42011	-1.74174	0.658527	0.170181	0.670482	1.01202	-0.236157	0.039774	1.78359	0.523599	0	0	0.938487	-0.36462	-0.159569	1.73286	0.395538	0	0	-1.01336	-0.0829988	0.051857	0.990079	-0.528627	0.00833313	1.24859	1.51461	0	0	0.886179	-0.359091	0.00758185	1.51858	0.899537	0	0
45.18	-3.07237	1.42711	-1.75103	0.657876	0.169297	0.676131	1.00532	-0.236478	0.0345198	1.76099	0.523599	0	0	0.928579	-0.362983	-0.170064	1.70896	0.394899	0	0	-1.00627	-0.0822747	0.0534579	0.986871	-0.53109	0.00785658	1.253	1.5177	0	0	0.879638	-0.356921	0.00385231	1.52589	0.898882	0	0
45.19	-2.9098	1.46129	-1.92791	0.656594	0.166514	0.677586	1.05144	-0.259027	0.0342897	1.71994	0.395806	0	0	0.952969	-0.355163	-0.192318	1.68731	0.389163	0	0	-0.968092	-0.0965435	0.0534855	0.985575	-0.536724	0.0175407	1.25727	1.48585	0	0	0.86979	-0.350988	-0.00610205	1.5346	0.910588	0	0
45.2	-2.99169	1.4335	-1.82822	0.654689	0.168024	0.688341	0.983004	-0.26349	0.0294831	1.69274	0.417161	0	0	0.898439	-0.340921	-0.195924	1.65588	0.392329	0	0	-0.998239	-0.08085	0.0455394	0.979544	-0.535192	-0.00480728	1.26237	1.5708	0	0	0.863755	-0.348573	-0.0119016	1.54341	0.931798	0	0
45.21	-2.97983	1.4373	-1.84188	0.654156	0.167386	0.69442	0.971673	-0.264938	0.024052	1.66846	0.412965	0	0	0.884338	-0.338504	-0.206857	1.63042	0.390228	0	0	-0.993257	-0.0815478	0.0471417	0.973414	-0.538696	0.00110807	1.26722	1.5305	0	0	0.855686	-0.345365	-0.016648	1.55369	0.930963	0	0
45.22	-2.97509	1.43994	-1.84869	0.653699	0.16684	0.7008	0.958371	-0.265719	0.017659	1.64278	0.399556	0	0	0.868867	-0.336391	-0.216946	1.60491	0.387046	0	0	-0.989427	-0.0820711	0.0495554	0.967314	-0.540502	-0.00419217	1.27199	1.5414	0	0	0.847619	-0.341808	-0.0207749	1.56283	0.9346	0	0
45.23	-2.97734	1.44179	-1.84875	0.653279	0.166331	0.707395	0.943722	-0.26558	0.011033	1.61776	0.391672	0	0	0.852705	-0.334505	-0.225896	1.57951	0.382075	0	0	-0.986287	-0.0821373	0.0525082	0.961463	-0.54187	-0.00912973	1.27661	1.5523	0	0	0.838793	-0.339401	-0.0257013	1.57219	0.939533	0	0
45.24	-2.98017	1.44356	-1.848	0.652822	0.165895	0.714051	0.929218	-0.266403	0.00271844	1.59137	0.37942	0	0	0.836847	-0.331893	-0.233883	1.5542	0.375747	0	0	-0.982835	-0.081834	0.0552253	0.955654	-0.542785	-0.0137656	1.28092	1.56328	0	0	0.830115	-0.337696	-0.0294298	1.58008	0.942717	0	0
45.25	-2.98897	1.44513	-1.84165	0.652538	0.165557	0.720784	0.913762	-0.266583	-0.00644942	1.56497	0.36882	0	0	0.820853	-0.330075	-0.241229	1.5293	0.368918	0	0	-0.979319	-0.0816318	0.0587043	0.949595	-0.543575	-0.0186815	1.28466	1.5708	0	0	0.822093	-0.336879	-0.0311297	1.58678	0.94395	0	0
45.26	-3.00365	1.4465	-1.82988	0.652433	0.165304	0.727481	0.897365	-0.265998	-0.0161453	1.53872	0.360665	0	0	0.804843	-0.329025	-0.247723	1.50506	0.362036	0	0	-0.975293	-0.0816353	0.0633085	0.942416	-0.544575	-0.0221759	1.28834	1.5708	0	0	0.814085	-0.337242	-0.0322282	1.59369	0.949239	0	0
45.27	-3.0258	1.44361	-1.81198	0.652591	0.165142	0.734747	0.875128	-0.264977	-0.0259812	1.51108	0.353868	0	0	0.782082	-0.328794	-0.256066	1.47899	0.355716	0	0	-0.975318	-0.0830539	0.0690024	0.934997	-0.545613	-0.0263678	1.29243	1.5708	0	0	0.80727	-0.337974	-0.0323901	1.60029	0.966161	0	0
45.28	-2.81594	1.41201	-2.04581	0.655448	0.165584	0.745738	0.851804	-0.28286	0.00908388	1.48581	0.347691	0	0	0.703914	-0.305472	-0.321856	1.42365	0.348347	0	0	-0.996104	-0.132208	0.0528828	0.921108	-0.539173	-0.042188	1.29778	1.5708	0	0	0.807235	-0.344495	-0.0259096	1.60613	0.968441	0	0
45.29	-3.04994	1.44608	-1.79539	0.652795	0.165356	0.747372	0.842406	-0.266277	-0.0468645	1.45885	0.339741	0	0	0.748338	-0.32559	-0.270375	1.4289	0.345468	0	0	-0.961846	-0.0856238	0.0806547	0.914672	-0.547666	-0.0356917	1.29989	1.5708	0	0	0.789553	-0.339073	-0.0307185	1.61316	0.970938	0	0
45.3	-3.0605	1.44644	-1.78843	0.652838	0.165787	0.753555	0.82511	-0.268767	-0.0582602	1.43311	0.332709	0	0	0.729399	-0.323022	-0.278269	1.40199	0.343419	0	0	-0.954319	-0.086831	0.0857704	0.903591	-0.547976	-0.0406158	1.30272	1.5708	0	0	0.77922	-0.339738	-0.0300268	1.61865	0.968989	0	0
45.31	-3.07632	1.44762	-1.77658	0.652922	0.166348	0.759493	0.808822	-0.270283	-0.0698362	1.40797	0.325431	0	0	0.711637	-0.321471	-0.285807	1.37649	0.340703	0	0	-0.945169	-0.0875314	0.0911002	0.892323	-0.547705	-0.0440553	1.30538	1.5708	0	0	0.767656	-0.340709	-0.0302751	1.62383	0.967114	0	0
45.32	-3.09943	1.44908	-1.75785	0.653076	0.167043	0.765332	0.792585	-0.270499	-0.0816703	1.3831	0.318091	0	0	0.694101	-0.320883	-0.29277	1.35154	0.337859	0	0	-0.935203	-0.0875326	0.0968525	0.881271	-0.547029	-0.0459429	1.30794	1.5708	0	0	0.754773	-0.341937	-0.0326771	1.62934	0.967142	0	0
45.33	-3.12657	1.45074	-1.73494	0.653202	0.167822	0.771135	0.775985	-0.270142	-0.0940111	1.35779	0.310678	0	0	0.67692	-0.320025	-0.298619	1.32602	0.335697	0	0	-0.924657	-0.0866861	0.102521	0.870743	-0.546245	-0.0463209	1.31009	1.5708	0	0	0.741475	-0.343302	-0.0353714	1.63403	0.967665	0	0
45.34	3.12622	1.45235	-1.70856	0.653372	0.168654	0.776947	0.758558	-0.268846	-0.106544	1.33147	0.303353	0	0	0.660043	-0.319219	-0.303863	1.30023	0.332879	0	0	-0.913768	-0.0853672	0.108097	0.86036	-0.545094	-0.0458494	1.31196	1.5708	0	0	0.727938	-0.344938	-0.038595	1.6386	0.969564	0	0
45.35	3.0955	1.4535	-1.6817	0.653659	0.169551	0.782806	0.740321	-0.266785	-0.118802	1.30465	0.296306	0	0	0.642983	-0.31839	-0.308916	1.27444	0.328632	0	0	-0.902912	-0.0841458	0.113295	0.849921	-0.543333	-0.0447451	1.31376	1.5708	0	0	0.714547	-0.346594	-0.0420092	1.64287	0.97101	0	0
45.36	3.06818	1.45476	-1.65848	0.654022	0.170469	0.788653	0.722699	-0.26385	-0.129736	1.27812	0.289267	0	0	0.626636	-0.317239	-0.313743	1.24941	0.322449	0	0	-0.891556	-0.0834259	0.118152	0.840334	-0.541261	-0.0434364	1.3142	1.5708	0	0	0.700944	-0.348341	-0.0460836	1.64745	0.972475	0	0
45.37	3.04575	1.4558	-1.64026	0.654481	0.171438	0.794526	0.705192	-0.26013	-0.139015	1.25146	0.281911	0	0	0.610283	-0.315659	-0.318882	1.22448	0.314986	0	0	-0.880018	-0.0833185	0.122443	0.831444	-0.53898	-0.0415748	1.31342	1.5708	0	0	0.687475	-0.350392	-0.0503613	1.65172	0.973138	0	0
45.38	3.02987	1.45643	-1.62824	0.65503	0.172503	0.800463	0.687401	-0.256386	-0.147046	1.22462	0.274298	0	0	0.593451	-0.3133	-0.324465	1.19926	0.306241	0	0	-0.868402	-0.0838469	0.125728	0.822049	-0.536092	-0.039058	1.31248	1.5708	0	0	0.674398	-0.352791	-0.0539624	1.65469	0.972117	0	0
45.39	3.02052	1.45698	-1.62271	0.655649	0.173652	0.806364	0.66991	-0.252455	-0.15341	1.19793	0.26631	0	0	0.576155	-0.310245	-0.330758	1.17352	0.29736	0	0	-0.856353	-0.0851562	0.128141	0.812382	-0.531735	-0.0375998	1.31079	1.5708	0	0	0.66142	-0.355263	-0.0575593	1.65663	0.969705	0	0
45.4	3.01689	1.45836	-1.62301	0.656322	0.174881	0.812067	0.653889	-0.248201	-0.158125	1.17166	0.258337	0	0	0.55935	-0.306564	-0.337597	1.14724	0.289013	0	0	-0.84289	-0.0871212	0.130169	0.802295	-0.526807	-0.0366007	1.30847	1.5708	0	0	0.648601	-0.357671	-0.0610246	1.65778	0.967119	0	0
45.41	3.01806	1.46054	-1.62775	0.656979	0.176173	0.817551	0.639082	-0.24412	-0.161853	1.14568	0.250735	0	0	0.542937	-0.302264	-0.344961	1.12017	0.280555	0	0	-0.828162	-0.0892133	0.13218	0.791473	-0.522161	-0.0362952	1.30626	1.5708	0	0	0.636135	-0.359217	-0.0644534	1.65778	0.965018	0	0
